<svg width="400" height="294" viewBox="0 0 400 294" fill="none" xmlns="http://www.w3.org/2000/svg">
<g clip-path="url(#clip0)">
<path opacity="0.2" d="M52.9363 148.665C47.6756 150.255 42.7515 154.103 41.4374 159.441C39.9343 165.577 43.4004 171.762 43.9014 178.062C45.5195 198.702 16.1561 213.265 20.345 233.54C22.0082 241.602 28.731 247.532 35.3552 252.431C45.9671 260.255 57.7413 267.166 70.7803 269.117C90.5708 272.082 111.248 263.368 130.485 268.875C146 273.318 157.873 286.341 173.281 291.146C185.01 294.805 197.647 293.363 209.832 291.881C216.402 291.084 223.285 290.164 228.587 286.222C238.444 278.883 239.064 264.39 245.663 254.004C255.856 237.988 278.205 234.842 296.945 237.955C315.684 241.068 333.881 248.731 352.867 248.107C356.924 247.971 361.08 247.421 364.62 245.429C368.924 243.01 371.832 238.747 374.402 234.53C390.47 208.069 399.29 177.845 399.975 146.895C400.086 141.577 399.897 136.029 397.396 131.335C394.234 125.396 387.914 121.844 381.622 119.454C366.513 113.704 349.823 112.764 335.018 106.279C320.739 100.025 309.175 89.0555 296.739 79.655C271.958 60.9579 243.235 48.166 212.76 42.2546C205.618 40.8748 198.205 39.8891 191.109 41.4826C182.932 43.3183 175.885 48.4148 169.548 53.9014C152.69 68.4969 139.179 86.5051 123.643 102.501C112.925 113.532 101.255 123.596 88.768 132.575C83.0185 136.719 76.9076 141.639 70.501 144.702C64.6366 147.503 59.1376 146.797 52.9363 148.665Z" fill="#009EFF"/>
<path d="M128.082 18.9487C128.082 18.9487 112.209 40.0287 123.565 64.5996C134.92 89.1704 103.774 128.649 103.774 128.649" stroke="#535461" stroke-width="2" stroke-miterlimit="10"/>
<path d="M135.199 11.0595C133.938 16.4846 127.906 19.7166 127.906 19.7166C127.906 19.7166 123.922 14.1519 125.183 8.7269C126.444 3.30184 129.7 -0.574949 132.476 0.0698144C135.253 0.714578 136.46 5.63449 135.199 11.0595Z" fill="#8ED16F"/>
<path d="M131.147 10.1142C131.543 8.41101 131.347 6.90986 130.709 6.76129C130.07 6.61273 129.231 7.87301 128.835 9.57621C128.439 11.2794 128.635 12.7806 129.273 12.9291C129.912 13.0777 130.751 11.8174 131.147 10.1142Z" fill="#8ED16F"/>
<path opacity="0.3" d="M131.147 10.1142C131.543 8.41101 131.347 6.90986 130.709 6.76129C130.07 6.61273 129.231 7.87301 128.835 9.57621C128.439 11.2794 128.635 12.7806 129.273 12.9291C129.912 13.0777 130.751 11.8174 131.147 10.1142Z" fill="black"/>
<path d="M132.456 35.1622C127.216 37.0513 121.224 33.7413 121.224 33.7413C121.224 33.7413 123.729 27.3717 128.973 25.4867C134.218 23.6016 139.24 24.2546 140.205 26.9076C141.17 29.5606 137.696 33.2731 132.456 35.1622Z" fill="#8ED16F"/>
<path d="M130.984 30.9795C132.628 30.385 133.779 29.4035 133.557 28.7873C133.334 28.1712 131.821 28.1537 130.177 28.7482C128.533 29.3428 127.381 30.3243 127.604 30.9404C127.827 31.5566 129.34 31.5741 130.984 30.9795Z" fill="#8ED16F"/>
<path opacity="0.3" d="M130.984 30.9795C132.628 30.385 133.779 29.4035 133.557 28.7873C133.334 28.1712 131.821 28.1537 130.177 28.7482C128.533 29.3428 127.381 30.3243 127.604 30.9404C127.827 31.5566 129.34 31.5741 130.984 30.9795Z" fill="black"/>
<path d="M131.236 54.3696C125.996 56.2587 120.004 52.9487 120.004 52.9487C120.004 52.9487 122.509 46.5791 127.754 44.6941C132.998 42.809 138.021 43.462 138.986 46.115C139.951 48.768 136.476 52.4846 131.236 54.3696Z" fill="#8ED16F"/>
<path d="M129.825 50.4772C131.471 49.8849 132.624 48.9047 132.402 48.288C132.18 47.6712 130.666 47.6515 129.021 48.2438C127.376 48.8362 126.222 49.8164 126.444 50.4331C126.666 51.0498 128.18 51.0696 129.825 50.4772Z" fill="#8ED16F"/>
<path opacity="0.3" d="M129.825 50.4772C131.471 49.8849 132.624 48.9047 132.402 48.288C132.18 47.6712 130.666 47.6515 129.021 48.2438C127.376 48.8362 126.222 49.8164 126.444 50.4331C126.666 51.0498 128.18 51.0696 129.825 50.4772Z" fill="black"/>
<path d="M137.359 76.9035C132.119 78.7926 126.127 75.4825 126.127 75.4825C126.127 75.4825 128.632 69.1129 133.877 67.2279C139.121 65.3429 144.144 65.9959 145.109 68.6489C146.074 71.3018 142.6 75.0267 137.359 76.9035Z" fill="#8ED16F"/>
<path d="M135.949 73.0211C137.594 72.4287 138.748 71.4486 138.526 70.8319C138.304 70.2151 136.79 70.1954 135.145 70.7877C133.5 71.3801 132.346 72.3602 132.568 72.977C132.79 73.5937 134.304 73.6135 135.949 73.0211Z" fill="#8ED16F"/>
<path opacity="0.3" d="M135.949 73.0211C137.594 72.4287 138.748 71.4486 138.526 70.8319C138.304 70.2151 136.79 70.1954 135.145 70.7877C133.5 71.3801 132.346 72.3602 132.568 72.977C132.79 73.5937 134.304 73.6135 135.949 73.0211Z" fill="black"/>
<path d="M133.376 97.5113C128.136 99.4004 122.144 96.0903 122.144 96.0903C122.144 96.0903 124.649 89.7207 129.893 87.8357C135.138 85.9507 140.16 86.6037 141.125 89.2567C142.09 91.9096 138.62 95.6263 133.376 97.5113Z" fill="#8ED16F"/>
<path d="M131.977 93.2788C133.621 92.6842 134.772 91.7027 134.55 91.0866C134.327 90.4704 132.813 90.4529 131.17 91.0475C129.526 91.642 128.374 92.6235 128.597 93.2397C128.82 93.8558 130.333 93.8733 131.977 93.2788Z" fill="#8ED16F"/>
<path opacity="0.3" d="M131.977 93.2788C133.621 92.6842 134.772 91.7027 134.55 91.0866C134.327 90.4704 132.813 90.4529 131.17 91.0475C129.526 91.642 128.374 92.6235 128.597 93.2397C128.82 93.8558 130.333 93.8733 131.977 93.2788Z" fill="black"/>
<path d="M108.797 40.6201C112.665 44.6283 119.503 44.3162 119.503 44.3162C119.503 44.3162 120.066 37.4949 116.197 33.4867C112.329 29.4784 107.536 27.8275 105.491 29.7906C103.446 31.7536 104.928 36.6119 108.797 40.6201Z" fill="#8ED16F"/>
<path d="M114.843 39.1977C115.315 38.7424 114.713 37.3534 113.498 36.0953C112.284 34.8372 110.917 34.1863 110.445 34.6416C109.973 35.0968 110.576 36.4858 111.79 37.7439C113.005 39.0021 114.372 39.6529 114.843 39.1977Z" fill="#8ED16F"/>
<path opacity="0.3" d="M114.843 39.1977C115.315 38.7424 114.713 37.3534 113.498 36.0953C112.284 34.8372 110.917 34.1863 110.445 34.6416C109.973 35.0968 110.576 36.4858 111.79 37.7439C113.005 39.0021 114.372 39.6529 114.843 39.1977Z" fill="black"/>
<path d="M106.575 104.271C110.444 108.279 117.281 107.967 117.281 107.967C117.281 107.967 117.844 101.146 113.975 97.1376C110.107 93.1294 105.314 91.4784 103.269 93.4415C101.224 95.4045 102.706 100.263 106.575 104.271Z" fill="#8ED16F"/>
<path d="M112.616 102.854C113.087 102.399 112.485 101.01 111.271 99.7518C110.056 98.4937 108.689 97.8429 108.218 98.2981C107.746 98.7534 108.348 100.142 109.563 101.4C110.777 102.659 112.144 103.309 112.616 102.854Z" fill="#8ED16F"/>
<path opacity="0.3" d="M112.616 102.854C113.087 102.399 112.485 101.01 111.271 99.7518C110.056 98.4937 108.689 97.8429 108.218 98.2981C107.746 98.7534 108.348 100.142 109.563 101.4C110.777 102.659 112.144 103.309 112.616 102.854Z" fill="black"/>
<path d="M111.704 63.117C116.69 65.6057 123.027 63.0185 123.027 63.0185C123.027 63.0185 121.281 56.4025 116.3 53.9138C111.318 51.425 106.246 51.4497 104.977 54.0123C103.708 56.5749 106.719 60.6283 111.704 63.117Z" fill="#8ED16F"/>
<path d="M116.915 59.7469C117.208 59.1604 116.177 58.052 114.612 57.2711C113.047 56.4903 111.542 56.3328 111.249 56.9193C110.956 57.5058 111.988 58.6143 113.552 59.3951C115.117 60.1759 116.623 60.3334 116.915 59.7469Z" fill="#8ED16F"/>
<path opacity="0.3" d="M116.915 59.7469C117.208 59.1604 116.177 58.052 114.612 57.2711C113.047 56.4903 111.542 56.3328 111.249 56.9193C110.956 57.5058 111.988 58.6143 113.552 59.3951C115.117 60.1759 116.623 60.3334 116.915 59.7469Z" fill="black"/>
<path d="M113.795 85.5277C118.78 88.0164 125.117 85.4292 125.117 85.4292C125.117 85.4292 123.372 78.8131 118.39 76.3244C113.409 73.8357 108.337 73.8604 107.068 76.423C105.799 78.9856 108.83 83.0637 113.795 85.5277Z" fill="#8ED16F"/>
<path d="M119.007 82.1605C119.3 81.574 118.269 80.4656 116.704 79.6847C115.14 78.9039 113.634 78.7464 113.341 79.3329C113.048 79.9194 114.08 81.0279 115.644 81.8087C117.209 82.5895 118.715 82.747 119.007 82.1605Z" fill="#8ED16F"/>
<path opacity="0.3" d="M119.007 82.1605C119.3 81.574 118.269 80.4656 116.704 79.6847C115.14 78.9039 113.634 78.7464 113.341 79.3329C113.048 79.9194 114.08 81.0279 115.644 81.8087C117.209 82.5895 118.715 82.747 119.007 82.1605Z" fill="black"/>
<path d="M51.6345 64.2587C51.6345 64.2587 80.6242 93.2485 64.2587 136.267C47.8932 179.285 92.3121 250.821 92.3121 250.821C92.3121 250.821 91.8357 250.752 90.9528 250.595C31.4045 240.086 1.83573 171.988 34.9364 121.4C47.2279 102.591 57.3511 80.5298 51.6345 64.2587Z" fill="#8ED16F"/>
<path d="M0 181.511C0 181.511 33.0801 176.242 36.0945 205.889C39.1088 235.536 99.7043 239.647 99.7043 239.647C99.7043 239.647 99.2936 239.918 98.5667 240.402C48.5339 273.257 0.706368 261.322 7.91376 217.713C10.5996 201.495 10.3778 185.211 0 181.511Z" fill="#8ED16F"/>
<g opacity="0.3">
<path opacity="0.3" d="M0 181.511C0 181.511 33.0801 176.242 36.0945 205.889C39.1088 235.536 99.7043 239.647 99.7043 239.647C99.7043 239.647 99.2936 239.918 98.5667 240.402C48.5339 273.257 0.706368 261.322 7.91376 217.713C10.5996 201.495 10.3778 185.211 0 181.511Z" fill="white"/>
</g>
<path d="M43.2608 181.146C48.2846 181.146 52.3573 170.52 52.3573 157.413C52.3573 144.305 48.2846 133.68 43.2608 133.68C38.2369 133.68 34.1643 144.305 34.1643 157.413C34.1643 170.52 38.2369 181.146 43.2608 181.146Z" fill="#8ED16F"/>
<path opacity="0.3" d="M43.2608 181.146C48.2846 181.146 52.3573 170.52 52.3573 157.413C52.3573 144.305 48.2846 133.68 43.2608 133.68C38.2369 133.68 34.1643 144.305 34.1643 157.413C34.1643 170.52 38.2369 181.146 43.2608 181.146Z" fill="black"/>
<path d="M42.4296 243.606C44.8241 241.212 42.4448 234.95 37.1154 229.621C31.786 224.292 25.5246 221.912 23.1301 224.307C20.7356 226.701 23.1149 232.963 28.4443 238.292C33.7737 243.622 40.0351 246.001 42.4296 243.606Z" fill="#8ED16F"/>
<path opacity="0.3" d="M42.4296 243.606C44.8241 241.212 42.4448 234.95 37.1154 229.621C31.786 224.292 25.5246 221.912 23.1301 224.307C20.7356 226.701 23.1149 232.963 28.4443 238.292C33.7737 243.622 40.0351 246.001 42.4296 243.606Z" fill="black"/>
<path d="M297.285 109.018H81.9507C79.3487 109.018 76.8532 110.052 75.0132 111.892C73.1733 113.732 72.1396 116.228 72.1396 118.83V245.043C72.1396 247.645 73.1733 250.141 75.0132 251.981C76.8532 253.821 79.3487 254.854 81.9507 254.854H297.285C299.887 254.854 302.383 253.821 304.223 251.981C306.063 250.141 307.096 247.645 307.096 245.043V118.83C307.096 116.228 306.063 113.732 304.223 111.892C302.383 110.052 299.887 109.018 297.285 109.018Z" fill="url(#paint0_linear)"/>
<path d="M294.14 110.735H85.0924C79.4652 110.735 74.9035 115.297 74.9035 120.924V242.949C74.9035 248.576 79.4652 253.138 85.0924 253.138H294.14C299.767 253.138 304.329 248.576 304.329 242.949V120.924C304.329 115.297 299.767 110.735 294.14 110.735Z" fill="#009EFF"/>
<path d="M304.329 135.655H74.9035V161.762H304.329V135.655Z" fill="#009EFF"/>
<path opacity="0.3" d="M304.329 135.655H74.9035V161.762H304.329V135.655Z" fill="black"/>
<path d="M282.575 181.146H96.6612V193.803H282.575V181.146Z" fill="#D6D6E3"/>
<path d="M112.086 243.647C122.136 243.647 130.283 235.5 130.283 225.45C130.283 215.4 122.136 207.253 112.086 207.253C102.036 207.253 93.8891 215.4 93.8891 225.45C93.8891 235.5 102.036 243.647 112.086 243.647Z" fill="#009EFF"/>
<path opacity="0.3" d="M112.086 243.647C122.136 243.647 130.283 235.5 130.283 225.45C130.283 215.4 122.136 207.253 112.086 207.253C102.036 207.253 93.8891 215.4 93.8891 225.45C93.8891 235.5 102.036 243.647 112.086 243.647Z" fill="black"/>
<path d="M291.285 75.6222C291.579 76.5509 292.203 77.3399 293.039 77.8398C296.813 80.3327 305.018 79.8029 306.004 79.8029C306.214 79.8029 306.489 80.1766 306.793 80.8049C308.242 83.7947 310.489 92.5585 310.641 94.5298C310.842 96.9158 313.06 108.082 316.69 112.242C316.801 112.37 316.912 112.489 317.018 112.6C320.579 116.177 324.756 112.242 324.756 112.242L325.355 110.16C325.187 110.982 324.998 111.938 324.809 113.01C324.715 113.548 324.62 114.119 324.53 114.706C323.989 118.016 323.704 121.362 323.68 124.715C323.671 125.932 323.723 127.149 323.836 128.361C323.869 128.698 323.906 129.031 323.951 129.355C324.136 130.832 324.227 132.319 324.222 133.807C324.189 142.645 321.934 153.639 321.934 153.639L322.021 153.61C321.967 153.885 321.934 154.021 321.934 154.021L322.066 153.979C322.003 154.387 321.943 154.805 321.885 155.232C321.121 160.776 320.682 167.676 320.472 171.659C320.364 173.76 320.457 175.867 320.752 177.951L324.76 206.168V219.31C324.746 221.301 324.989 223.286 325.483 225.216C326.789 230.181 325.713 247.511 325.109 255.733C324.94 257.975 324.809 259.544 324.772 259.996V260.131L324.887 260.086C324.887 260.181 324.887 260.23 324.887 260.23C325.058 260.157 325.237 260.104 325.421 260.074C323.832 262.538 320.953 266.612 318.739 267.298C317.435 267.695 316.274 268.464 315.4 269.511L315.343 269.589L315.261 269.704C314.987 270.07 314.821 270.506 314.78 270.961C314.748 270.883 314.724 270.802 314.706 270.719C314.538 271.634 315.088 272.472 316.817 272.879C317.825 273.071 318.851 273.154 319.877 273.125C325.873 273.125 336.513 271.281 337.688 269.298V262.456L337.881 262.517V262.579L338.616 262.821L340.632 256.053C343.051 254.263 341.043 222.218 340.632 214.854C340.263 208.144 344.415 181.45 345.15 176.747L345.051 176.628L345.162 175.942C345.31 176.05 345.448 176.171 345.573 176.304C345.814 176.59 346.025 176.902 346.201 177.232C346.548 177.82 346.846 178.435 347.092 179.072C351.15 189.191 352.977 218.127 352.977 220.723V247.934C352.969 250.62 353.342 253.292 354.086 255.873C354.459 257.231 354.747 258.61 354.949 260.004C355.035 260.55 355.109 261.092 355.179 261.61C355.248 262.127 355.318 262.719 355.372 263.203C355.372 263.331 355.4 263.454 355.413 263.569C355.425 263.684 355.413 263.68 355.413 263.737C355.524 264.809 355.581 265.511 355.581 265.511C355.596 265.452 355.624 265.398 355.663 265.351L355.684 265.61C355.713 265.512 355.768 265.424 355.844 265.355C356.011 265.191 356.192 265.043 356.386 264.912V268.37L356.287 268.296V268.891C360.468 272.045 367.273 272.998 372.497 272.961C375.885 272.961 378.628 272.55 379.581 272.074C380.945 271.404 380.197 269.844 378.957 268.649C377.996 267.721 376.743 267.006 375.951 267.096C374.628 267.24 370.107 262.119 367.737 259.314L368.004 259.195L368.382 259.031V213.659C368.382 213.659 368.99 195.745 370.801 178.029C371.66 169.098 370.603 160.087 367.7 151.598L367.643 151.429L368.193 151.515C368.776 151.606 369.088 151.659 369.088 151.659C369.088 151.659 369.088 151.519 369.051 151.248H369.088C369.088 151.248 368.382 143.565 368.374 133.914C368.374 122.973 369.298 109.634 373.121 102.086C375.322 97.7413 376.058 94.2834 375.996 91.5565C376.092 89.157 375.401 86.7919 374.029 84.8214C373.453 84.0281 372.67 83.4086 371.766 83.0308L371.688 82.9856H371.647C370.986 82.7184 370.281 82.579 369.569 82.575H361.31C360.354 82.5757 359.415 82.3281 358.583 81.8563L355.351 80.0246C354.275 77.6715 354.119 74.7556 354.349 72.0205C354.349 71.8029 354.39 71.5852 354.411 71.3717L354.645 71.1253C354.825 70.9322 354.994 70.7146 355.158 70.5298C355.154 70.6919 355.142 70.8536 355.121 71.0144C355.08 71.2731 355.01 71.4251 354.899 71.4579C356.665 71.2279 358.637 70.8789 359.721 69.5154C359.766 69.462 359.807 69.4045 359.848 69.347C360.168 68.8284 360.434 68.2779 360.641 67.7043C360.793 67.3125 360.996 66.9424 361.244 66.6037C361.515 66.2505 361.869 65.963 362.16 65.6263L362.209 65.5688C363.248 64.3368 363.306 62.5708 363.318 60.961C363.339 57.0513 363.224 52.7474 360.608 49.8152C358.435 47.3758 354.969 46.4518 351.68 46.345C348.39 46.2382 345.109 46.8296 341.823 46.846C339.589 46.846 336.895 46.809 335.663 48.6571C335.06 49.5647 334.986 50.7516 334.329 51.6222C333.951 52.1232 333.372 52.5544 333.339 53.1787C333.335 53.4667 333.408 53.7505 333.552 54V54.0288C334.349 55.5975 336.041 56.575 337.807 56.883C337.509 57.2423 337.234 57.6209 336.986 58.0164C335.907 59.74 335.338 61.733 335.343 63.7659C335.343 64.0041 335.343 64.2382 335.368 64.4723C335.551 67.2335 336.782 69.8205 338.809 71.7043C338.776 71.9343 338.743 72.1643 338.706 72.3902L338.78 72.4559C339.013 72.6667 339.255 72.8665 339.507 73.0554L339.598 73.1253C339.598 73.269 339.598 73.4127 339.598 73.5359C339.598 73.7741 339.598 74.0164 339.573 74.2505C339.548 74.4846 339.573 74.6283 339.548 74.8173L339.495 74.7721L335.483 71.4209L329.031 65.4497C329.031 65.4497 312.899 53.7084 312.09 59.2895C311.993 60.2808 312.266 61.273 312.858 62.0739C315.819 66.5914 326 70.4353 326 70.4353C326 70.4353 332.07 76.8542 336.131 83.7741C335.988 83.8522 335.844 83.9261 335.692 83.9959C332.078 85.6756 326.805 84.9651 326.805 84.9651C320.715 85.9138 320.164 92.5873 320.197 95.2854C320.197 95.4127 320.197 95.5359 320.197 95.6468C320.197 95.7577 320.197 95.7823 320.197 95.8439L312.115 76.8665L312.09 76.809C311.827 76.1912 311.412 75.6498 310.883 75.2349C310.355 74.82 309.731 74.545 309.068 74.4353C303.663 73.5277 290.156 71.6345 291.285 75.6222ZM325.121 260.016C325.239 259.988 325.358 259.966 325.478 259.951L325.441 260.008L325.121 260.016Z" fill="url(#paint1_linear)"/>
<path d="M365.503 256.136C365.503 256.136 373.158 265.758 374.928 265.561C376.698 265.363 380.817 269.29 378.464 270.489C376.111 271.688 362.563 272.452 355.877 267.347V259.655L365.503 256.136Z" fill="#2E4369"/>
<path d="M326.821 256.723C326.821 256.723 322.304 264.772 319.166 265.758C316.029 266.743 313.277 270.275 317.4 271.257C321.524 272.238 336.25 270.078 337.622 267.721V257.31L326.821 256.723Z" fill="#2E4369"/>
<path d="M321.15 177.647L325.051 205.483V218.423C325.039 220.386 325.277 222.343 325.758 224.246C327.031 229.146 325.984 246.238 325.392 254.349C325.199 256.994 325.051 258.686 325.051 258.686C327.602 257.507 338.402 261.236 338.402 261.236L339.495 257.519L340.365 254.563C342.723 252.797 340.776 221.187 340.365 213.906C340.099 208.932 342.316 192.809 343.737 183.146C344.148 180.415 344.48 178.218 344.682 176.895C344.809 176.074 344.879 175.618 344.879 175.618C345.312 175.971 345.671 176.405 345.938 176.895C346.276 177.476 346.566 178.083 346.805 178.71C350.756 188.694 352.554 217.236 352.554 219.778V246.62C352.546 249.268 352.91 251.905 353.634 254.452C354.121 256.31 354.476 258.199 354.698 260.107C354.977 262.238 355.109 263.955 355.109 263.955C355.306 262.776 367.478 257.474 367.478 257.474V212.71C367.478 212.71 368.066 195.051 369.836 177.565C370.596 169.61 369.83 161.584 367.577 153.918C367.088 152.246 366.6 150.83 366.177 149.708C365.458 147.799 364.945 146.743 364.945 146.743H324.846C324.172 146.871 323.614 148.226 323.109 150.283C322.78 151.663 322.493 153.355 322.242 155.212C321.499 160.678 321.072 167.483 320.867 171.417C320.763 173.498 320.858 175.584 321.15 177.647Z" fill="#618FD8"/>
<g opacity="0.1">
<path opacity="0.1" d="M366.772 257.602V212.838C366.772 212.838 367.359 195.179 369.129 177.692C370.899 160.205 364.201 146.867 364.201 146.867H364.986C364.986 146.867 371.659 160.218 369.914 177.692C368.168 195.166 367.556 212.838 367.556 212.838V257.602C367.556 257.602 355.384 262.904 355.187 264.082C355.187 264.082 355.187 263.819 355.125 263.368C357.778 261.524 366.772 257.602 366.772 257.602Z" fill="black"/>
<path opacity="0.1" d="M326.23 258.563C325.859 258.57 325.493 258.645 325.15 258.784V258.587C325.509 258.551 325.87 258.543 326.23 258.563Z" fill="black"/>
<path opacity="0.1" d="M339.68 254.661C342.037 252.895 340.09 221.285 339.68 214.004C339.269 206.723 344.197 175.721 344.197 175.721C344.455 175.92 344.683 176.155 344.875 176.419C344.152 181.051 340.111 207.388 340.468 214.004C340.879 221.269 342.825 252.879 340.468 254.661L338.505 261.335L337.791 261.097L339.68 254.661Z" fill="black"/>
</g>
<path d="M329.175 98.2793L325.068 112.809C325.068 112.809 320.747 116.916 317.216 112.809C313.684 108.702 311.507 97.692 311.294 95.3347C311.08 92.9774 307.955 80.8049 306.776 80.8049C305.598 80.8049 293.819 81.5893 292.444 76.6982C291.343 72.7639 304.493 74.6448 309.758 75.5277C310.406 75.6381 311.016 75.9106 311.531 76.3198C312.046 76.7291 312.449 77.2619 312.702 77.8686L320.776 97.1499C320.776 97.1499 325.051 92.193 329.175 98.2793Z" fill="#E3A886"/>
<path d="M355.68 64.5092C355.68 64.5092 350.575 78.8419 357.055 83.9466C363.536 89.0513 333.881 90.4271 333.881 90.4271L337.906 86.5996C337.906 86.5996 340.752 75.3101 338.788 65.885L355.68 64.5092Z" fill="#E3A886"/>
<path opacity="0.1" d="M349.396 83.9466C349.396 83.9466 354.6 82.6694 354.6 81.2978L359.211 83.9466H370.797C370.797 83.9466 379.24 88.6571 372.172 102.797C365.105 116.936 368.246 151.667 368.246 151.667C368.246 151.667 343.117 147.15 322.304 154.025C322.304 154.025 325.446 138.513 324.267 129.68C323.088 120.846 326.23 108.476 326.23 108.476L327.996 101.014C327.996 101.014 327.897 94.0329 320.632 97.577C320.632 97.577 319.552 87.4661 327.014 86.2875C327.014 86.2875 335.639 87.4661 338.205 83.1458C338.205 83.1622 343.901 86.501 349.396 83.9466Z" fill="black"/>
<path d="M349.396 83.5565C349.396 83.5565 354.6 82.2793 354.6 80.9076L357.979 82.8501C358.787 83.3128 359.702 83.5563 360.632 83.5565H368.735C369.582 83.554 370.417 83.7531 371.172 84.1373C371.927 84.5215 372.58 85.0797 373.076 85.7659C374.936 88.3819 376.604 93.54 372.172 102.407C365.105 116.542 368.246 151.277 368.246 151.277C368.246 151.277 343.117 146.76 322.304 153.634C322.304 153.634 325.446 138.123 324.267 129.29C323.088 120.456 326.23 108.115 326.23 108.115L327.996 100.653C327.996 100.653 327.897 93.6714 320.632 97.2156C320.632 97.2156 319.581 87.384 326.706 85.9795C326.904 85.9354 327.108 85.9216 327.31 85.9384C328.834 86.0986 335.934 86.6119 338.209 82.7639C338.205 82.768 343.901 86.1068 349.396 83.5565Z" fill="#2E4369"/>
<path opacity="0.1" d="M369.228 101.421C369.228 101.421 362.945 105.347 352.735 101.421C352.735 101.421 341.544 97.3142 338.008 89.2485C334.472 81.1828 355.873 90.6242 355.873 90.6242C355.873 90.6242 360.39 90.6242 361.762 89.6427C363.133 88.6612 372.76 97.1006 369.228 101.421Z" fill="black"/>
<path d="M369.228 100.637C369.228 100.637 362.945 104.563 352.735 100.637C352.735 100.637 341.544 96.5298 338.008 88.464C334.472 80.3983 326.23 71.5647 326.23 71.5647C326.23 71.5647 311.897 66.0657 312.678 60.5708C313.458 55.076 329.17 66.6571 329.17 66.6571L335.454 72.5462L355.873 89.8234C355.873 89.8234 360.39 89.8234 361.762 88.8419C363.133 87.8604 372.76 96.3162 369.228 100.637Z" fill="#E3A886"/>
<path opacity="0.1" d="M338.6 66.4723L355.483 65.0965C354.615 67.6921 354.024 70.3724 353.721 73.0924C351.758 75.1276 349.075 76.3109 346.248 76.3877C343.422 76.4645 340.678 75.4287 338.608 73.5031C339.038 71.179 339.035 68.7954 338.6 66.4723Z" fill="black"/>
<path d="M346.16 75.7988C352.123 75.7988 356.957 70.9649 356.957 65.002C356.957 59.0392 352.123 54.2053 346.16 54.2053C340.197 54.2053 335.363 59.0392 335.363 65.002C335.363 70.9649 340.197 75.7988 346.16 75.7988Z" fill="#E3A886"/>
<path opacity="0.1" d="M352.086 67.347C351.454 66.3039 352.739 64.9446 352.316 63.8029C351.926 62.7515 350.374 62.5708 349.852 61.5893C349.441 60.7967 349.852 59.8234 349.688 58.9487C349.454 57.8193 348.238 57.117 347.084 57.0595C345.93 57.0021 344.817 57.4333 343.721 57.8029C341.934 58.4066 340.053 58.8706 338.181 58.6571C336.308 58.4435 334.439 57.4251 333.606 55.7536C333.469 55.5101 333.397 55.2359 333.396 54.9569C333.429 54.3409 333.996 53.9179 334.361 53.4251C335.002 52.5667 335.076 51.3963 335.659 50.501C336.85 48.6776 339.466 48.7228 341.643 48.7146C344.846 48.7146 348.033 48.115 351.236 48.2218C354.439 48.3285 357.807 49.2361 359.93 51.6427C362.476 54.538 362.591 58.7762 362.571 62.6365C362.571 64.2259 362.505 65.9548 361.491 67.1827C361.195 67.54 360.834 67.8357 360.55 68.2012C359.934 69.0226 359.77 70.0739 359.191 70.9076C358.164 72.3901 356.16 72.7515 354.374 72.9897C354.899 72.9199 354.464 69.4004 354.374 69.076C354.029 67.4579 353.655 67.4908 352.086 67.347Z" fill="black"/>
<path d="M352.086 66.9569C351.454 65.9138 352.739 64.5544 352.316 63.4127C351.926 62.3614 350.374 62.1807 349.852 61.1992C349.441 60.4066 349.852 59.4333 349.688 58.5585C349.454 57.4292 348.238 56.7269 347.084 56.6694C345.93 56.6119 344.817 57.0431 343.721 57.4127C341.934 58.0164 340.053 58.4805 338.181 58.2669C336.308 58.0534 334.439 57.0349 333.606 55.3635C333.469 55.12 333.397 54.8458 333.396 54.5667C333.429 53.9507 333.996 53.5277 334.361 53.0349C335.002 52.1766 335.076 51.0062 335.659 50.1109C336.85 48.2875 339.466 48.3327 341.643 48.3244C344.846 48.3244 348.033 47.7249 351.236 47.8316C354.439 47.9384 357.807 48.846 359.93 51.2526C362.476 54.1478 362.591 58.386 362.571 62.2464C362.571 63.8357 362.505 65.5647 361.491 66.7926C361.195 67.1499 360.834 67.4456 360.55 67.8111C359.934 68.6324 359.77 69.6838 359.191 70.5175C358.164 72 356.16 72.3614 354.374 72.5996C354.899 72.5298 354.464 69.0103 354.374 68.6858C354.029 67.0472 353.655 67.0965 352.086 66.9569Z" fill="#281C1C"/>
<path opacity="0.1" d="M369.129 101.914C369.129 101.914 363.828 88.1684 359.704 87.7782C355.581 87.3881 367.556 87.7782 367.556 87.7782L371.483 94.846L369.129 101.914Z" fill="black"/>
<path d="M369.524 101.914C369.524 101.914 364.222 88.1684 360.099 87.7782C355.975 87.3881 367.951 87.7782 367.951 87.7782L371.877 94.846L369.524 101.914Z" fill="#2E4369"/>
<path d="M354.682 260.14C354.961 262.271 355.092 263.988 355.092 263.988C355.29 262.809 367.462 257.507 367.462 257.507V254.316C367.152 254.305 366.841 254.32 366.534 254.361C364.172 254.678 361.984 255.823 359.963 257.047C358.256 258.167 356.494 259.199 354.682 260.14Z" fill="#618FD8"/>
<path opacity="0.3" d="M354.682 260.14C354.961 262.271 355.092 263.988 355.092 263.988C355.29 262.809 367.462 257.507 367.462 257.507V254.316C367.152 254.305 366.841 254.32 366.534 254.361C364.172 254.678 361.984 255.823 359.963 257.047C358.256 258.167 356.494 259.199 354.682 260.14Z" fill="black"/>
<path d="M325.051 258.686C327.602 257.507 338.402 261.236 338.402 261.236L339.495 257.519C337.61 257.138 335.737 256.661 333.897 256.094C333.038 255.846 332.198 255.536 331.384 255.166C330.84 254.876 330.281 254.615 329.708 254.386C328.3 253.901 326.834 254.107 325.388 254.349C325.199 256.994 325.051 258.686 325.051 258.686Z" fill="#618FD8"/>
<path opacity="0.3" d="M325.051 258.686C327.602 257.507 338.402 261.236 338.402 261.236L339.495 257.519C337.61 257.138 335.737 256.661 333.897 256.094C333.038 255.846 332.198 255.536 331.384 255.166C330.84 254.876 330.281 254.615 329.708 254.386C328.3 253.901 326.834 254.107 325.388 254.349C325.199 256.994 325.051 258.686 325.051 258.686Z" fill="black"/>
<path opacity="0.4" d="M378.357 269.877C378.522 269.807 378.668 269.7 378.784 269.564C378.901 269.429 378.985 269.269 379.031 269.097C379.104 269.367 379.076 269.656 378.952 269.907C378.828 270.159 378.617 270.357 378.357 270.464C376 271.643 362.456 272.427 355.77 267.322V266.735C362.456 271.84 376 271.055 378.357 269.877Z" fill="white"/>
<path opacity="0.4" d="M317.298 270.661C321.405 271.643 336.148 269.483 337.52 267.125V267.713C336.144 270.07 321.421 272.23 317.298 271.248C315.614 270.838 315.076 270.016 315.244 269.117C315.376 269.782 315.992 270.333 317.298 270.661Z" fill="white"/>
<path opacity="0.1" d="M341.248 127.634C341.248 127.634 336.928 126.259 335.749 127.634C334.571 129.01 324.497 132.234 324.497 132.234" fill="black"/>
<path d="M292.366 73.6879H313.372V73.2444H292.366V73.6879Z" fill="#8ED16F"/>
<path d="M292.366 74.1314H313.372V73.6879H292.366V74.1314Z" fill="#8ED16F"/>
<path opacity="0.1" d="M292.366 74.1314H313.372V73.6879H292.366V74.1314Z" fill="black"/>
<path d="M292.366 74.5749H313.372V74.1314H292.366V74.5749Z" fill="#8ED16F"/>
<path d="M292.366 75.0144H313.372V74.5708H292.366V75.0144Z" fill="#8ED16F"/>
<path opacity="0.1" d="M292.366 75.0144H313.372V74.5708H292.366V75.0144Z" fill="black"/>
<path d="M292.366 75.4579H313.372V75.0144H292.366V75.4579Z" fill="#8ED16F"/>
<path d="M292.366 75.8973H313.372V75.4538H292.366V75.8973Z" fill="#8ED16F"/>
<path opacity="0.1" d="M292.366 75.8973H313.372V75.4538H292.366V75.8973Z" fill="black"/>
<path d="M292.366 76.3409H313.372V75.8973H292.366V76.3409Z" fill="#8ED16F"/>
<path d="M292.366 76.7803H313.372V76.3368H292.366V76.7803Z" fill="#8ED16F"/>
<path opacity="0.1" d="M292.366 76.7803H313.372V76.3368H292.366V76.7803Z" fill="black"/>
<path d="M292.366 70.1561H313.372V69.7125H292.366V70.1561Z" fill="#8ED16F"/>
<path d="M307.224 59.6552L323.374 73.0874L323.658 72.7464L307.507 59.3142L307.224 59.6552Z" fill="#8ED16F"/>
<path d="M292.499 52.5883L308.65 66.0204L308.933 65.6794L292.783 52.2473L292.499 52.5883Z" fill="#8ED16F"/>
<path d="M292.366 70.5955H313.372V70.152H292.366V70.5955Z" fill="#8ED16F"/>
<path opacity="0.1" d="M292.366 70.5955H313.372V70.152H292.366V70.5955Z" fill="black"/>
<path d="M292.366 71.0431H313.372V70.5996H292.366V71.0431Z" fill="#8ED16F"/>
<path d="M292.366 71.4825H313.372V71.039H292.366V71.4825Z" fill="#8ED16F"/>
<path opacity="0.1" d="M292.366 71.4825H313.372V71.039H292.366V71.4825Z" fill="black"/>
<path d="M292.366 71.922H313.372V71.4784H292.366V71.922Z" fill="#8ED16F"/>
<path d="M292.366 72.3655H313.372V71.922H292.366V72.3655Z" fill="#8ED16F"/>
<path opacity="0.1" d="M292.366 72.3655H313.372V71.922H292.366V72.3655Z" fill="black"/>
<path d="M292.366 72.8049H313.372V72.3614H292.366V72.8049Z" fill="#8ED16F"/>
<path d="M292.366 73.2485H313.372V72.8049H292.366V73.2485Z" fill="#8ED16F"/>
<path opacity="0.1" d="M292.366 73.2485H313.372V72.8049H292.366V73.2485Z" fill="black"/>
<path d="M289.703 90.4693L297.229 91.867L299.953 77.1978L292.427 75.8002L289.703 90.4693Z" fill="#8ED16F"/>
<path d="M296.475 84.1667C296.792 82.4608 296.358 80.9496 295.506 80.7914C294.655 80.6332 293.707 81.8879 293.39 83.5939C293.074 85.2998 293.507 86.811 294.359 86.9691C295.211 87.1273 296.158 85.8727 296.475 84.1667Z" fill="#8ED16F"/>
<path opacity="0.1" d="M296.475 84.1667C296.792 82.4608 296.358 80.9496 295.506 80.7914C294.655 80.6332 293.707 81.8879 293.39 83.5939C293.074 85.2998 293.507 86.811 294.359 86.9691C295.211 87.1273 296.158 85.8727 296.475 84.1667Z" fill="black"/>
<path d="M290.991 121.432L298.517 122.829L301.241 108.16L293.715 106.763L290.991 121.432Z" fill="#8ED16F"/>
<path d="M297.759 115.126C298.076 113.42 297.642 111.909 296.79 111.751C295.938 111.592 294.991 112.847 294.674 114.553C294.357 116.259 294.791 117.77 295.643 117.928C296.495 118.087 297.442 116.832 297.759 115.126Z" fill="#8ED16F"/>
<path opacity="0.1" d="M297.759 115.126C298.076 113.42 297.642 111.909 296.79 111.751C295.938 111.592 294.991 112.847 294.674 114.553C294.357 116.259 294.791 117.77 295.643 117.928C296.495 118.087 297.442 116.832 297.759 115.126Z" fill="black"/>
<path d="M263.769 45.3267L260.125 52.0592L273.247 59.1601L276.89 52.4276L263.769 45.3267Z" fill="#8ED16F"/>
<path d="M272.55 54.0402C272.966 53.2778 272.066 51.9846 270.539 51.1517C269.012 50.3189 267.437 50.2618 267.021 51.0242C266.605 51.7867 267.506 53.0799 269.033 53.9128C270.56 54.7456 272.134 54.8027 272.55 54.0402Z" fill="#8ED16F"/>
<path opacity="0.1" d="M272.55 54.0402C272.966 53.2778 272.066 51.9846 270.539 51.1517C269.012 50.3189 267.437 50.2618 267.021 51.0242C266.605 51.7867 267.506 53.0799 269.033 53.9128C270.56 54.7456 272.134 54.8027 272.55 54.0402Z" fill="black"/>
<path d="M234.956 178.191L231.313 184.923L244.435 192.024L248.078 185.292L234.956 178.191Z" fill="#8ED16F"/>
<path d="M242.416 186.693C242.829 185.931 241.926 184.643 240.4 183.818C238.874 182.992 237.303 182.94 236.89 183.702C236.478 184.464 237.381 185.751 238.907 186.577C240.433 187.403 242.004 187.455 242.416 186.693Z" fill="#8ED16F"/>
<path opacity="0.1" d="M242.416 186.693C242.829 185.931 241.926 184.643 240.4 183.818C238.874 182.992 237.303 182.94 236.89 183.702C236.478 184.464 237.381 185.751 238.907 186.577C240.433 187.403 242.004 187.455 242.416 186.693Z" fill="black"/>
<path d="M217.328 68.5469L213.685 75.2794L226.807 82.3802L230.45 75.6477L217.328 68.5469Z" fill="#8ED16F"/>
<path d="M224.785 77.0427C225.197 76.2807 224.294 74.9935 222.768 74.1677C221.242 73.342 219.671 73.2902 219.258 74.0522C218.846 74.8142 219.749 76.1014 221.275 76.9272C222.801 77.753 224.372 77.8047 224.785 77.0427Z" fill="#8ED16F"/>
<path opacity="0.1" d="M224.785 77.0427C225.197 76.2807 224.294 74.9935 222.768 74.1677C221.242 73.342 219.671 73.2902 219.258 74.0522C218.846 74.8142 219.749 76.1014 221.275 76.9272C222.801 77.753 224.372 77.8047 224.785 77.0427Z" fill="black"/>
<path d="M239.422 45.325L235.779 52.0574L248.901 59.1583L252.544 52.4259L239.422 45.325Z" fill="#8ED16F"/>
<path d="M246.879 53.8208C247.291 53.0588 246.388 51.7716 244.862 50.9458C243.336 50.12 241.765 50.0683 241.352 50.8303C240.94 51.5923 241.843 52.8795 243.369 53.7053C244.895 54.5311 246.466 54.5828 246.879 53.8208Z" fill="#8ED16F"/>
<path opacity="0.1" d="M246.879 53.8208C247.291 53.0588 246.388 51.7716 244.862 50.9458C243.336 50.12 241.765 50.0683 241.352 50.8303C240.94 51.5923 241.843 52.8795 243.369 53.7053C244.895 54.5311 246.466 54.5828 246.879 53.8208Z" fill="black"/>
<path d="M261.481 72.7253L253.871 73.5574L255.493 88.3889L263.103 87.5568L261.481 72.7253Z" fill="#8ED16F"/>
<path d="M258.728 83.6928C259.589 83.5987 260.135 82.1241 259.946 80.3993C259.757 78.6744 258.906 77.3525 258.045 77.4467C257.184 77.5409 256.638 79.0155 256.827 80.7403C257.016 82.4651 257.867 83.787 258.728 83.6928Z" fill="#8ED16F"/>
<path opacity="0.1" d="M258.728 83.6928C259.589 83.5987 260.135 82.1241 259.946 80.3993C259.757 78.6744 258.906 77.3525 258.045 77.4467C257.184 77.5409 256.638 79.0155 256.827 80.7403C257.016 82.4651 257.867 83.787 258.728 83.6928Z" fill="black"/>
<path d="M313.654 153.94L306.044 154.772L307.666 169.604L315.276 168.772L313.654 153.94Z" fill="#8ED16F"/>
<path d="M310.905 164.908C311.766 164.813 312.311 163.339 312.123 161.614C311.934 159.889 311.083 158.567 310.222 158.661C309.36 158.756 308.815 160.23 309.004 161.955C309.192 163.68 310.043 165.002 310.905 164.908Z" fill="#8ED16F"/>
<path opacity="0.1" d="M310.905 164.908C311.766 164.813 312.311 163.339 312.123 161.614C311.934 159.889 311.083 158.567 310.222 158.661C309.36 158.756 308.815 160.23 309.004 161.955C309.192 163.68 310.043 165.002 310.905 164.908Z" fill="black"/>
<path d="M231.684 104.231L228.04 110.964L241.162 118.065L244.805 111.332L231.684 104.231Z" fill="#8ED16F"/>
<path d="M239.138 112.733C239.55 111.971 238.647 110.684 237.121 109.858C235.595 109.032 234.024 108.98 233.611 109.742C233.199 110.504 234.102 111.791 235.628 112.617C237.154 113.443 238.725 113.495 239.138 112.733Z" fill="#8ED16F"/>
<path opacity="0.1" d="M239.138 112.733C239.55 111.971 238.647 110.684 237.121 109.858C235.595 109.032 234.024 108.98 233.611 109.742C233.199 110.504 234.102 111.791 235.628 112.617C237.154 113.443 238.725 113.495 239.138 112.733Z" fill="black"/>
<path d="M198.571 94.7743L194.928 101.507L208.05 108.608L211.693 101.875L198.571 94.7743Z" fill="#8ED16F"/>
<path d="M207.117 103.723C207.533 102.96 206.633 101.667 205.106 100.834C203.579 100.001 202.004 99.9442 201.588 100.707C201.172 101.469 202.073 102.762 203.6 103.595C205.127 104.428 206.701 104.485 207.117 103.723Z" fill="#8ED16F"/>
<path opacity="0.1" d="M207.117 103.723C207.533 102.96 206.633 101.667 205.106 100.834C203.579 100.001 202.004 99.9442 201.588 100.707C201.172 101.469 202.073 102.762 203.6 103.595C205.127 104.428 206.701 104.485 207.117 103.723Z" fill="black"/>
<path d="M187.966 253.997L184.323 260.729L197.445 267.83L201.088 261.098L187.966 253.997Z" fill="#8ED16F"/>
<path d="M195.422 262.495C195.834 261.733 194.932 260.445 193.406 259.62C191.88 258.794 190.308 258.742 189.896 259.504C189.484 260.266 190.386 261.553 191.912 262.379C193.438 263.205 195.01 263.257 195.422 262.495Z" fill="#8ED16F"/>
<path opacity="0.1" d="M195.422 262.495C195.834 261.733 194.932 260.445 193.406 259.62C191.88 258.794 190.308 258.742 189.896 259.504C189.484 260.266 190.386 261.553 191.912 262.379C193.438 263.205 195.01 263.257 195.422 262.495Z" fill="black"/>
<path d="M178.419 256.592L177.023 264.118L191.693 266.84L193.089 259.313L178.419 256.592Z" fill="#8ED16F"/>
<path opacity="0.05" d="M178.419 256.592L177.023 264.118L191.693 266.84L193.089 259.313L178.419 256.592Z" fill="black"/>
<path d="M188.13 262.384C188.288 261.532 187.033 260.585 185.327 260.269C183.621 259.952 182.11 260.386 181.952 261.238C181.794 262.09 183.049 263.037 184.755 263.354C186.461 263.67 187.972 263.236 188.13 262.384Z" fill="#8ED16F"/>
<path opacity="0.1" d="M188.13 262.384C188.288 261.532 187.033 260.585 185.327 260.269C183.621 259.952 182.11 260.386 181.952 261.238C181.794 262.09 183.049 263.037 184.755 263.354C186.461 263.67 187.972 263.236 188.13 262.384Z" fill="black"/>
<path d="M179.794 261.105L178.397 268.632L193.067 271.354L194.463 263.827L179.794 261.105Z" fill="#8ED16F"/>
<path d="M189.5 266.898C189.658 266.046 188.403 265.099 186.697 264.782C184.991 264.466 183.48 264.9 183.322 265.752C183.164 266.604 184.419 267.551 186.125 267.867C187.831 268.184 189.342 267.75 189.5 266.898Z" fill="#8ED16F"/>
<path opacity="0.1" d="M189.5 266.898C189.658 266.046 188.403 265.099 186.697 264.782C184.991 264.466 183.48 264.9 183.322 265.752C183.164 266.604 184.419 267.551 186.125 267.867C187.831 268.184 189.342 267.75 189.5 266.898Z" fill="black"/>
<path d="M203.444 273.347L199.801 280.08L212.923 287.18L216.566 280.448L203.444 273.347Z" fill="#8ED16F"/>
<path d="M210.904 281.845C211.317 281.083 210.414 279.796 208.888 278.97C207.362 278.144 205.79 278.093 205.378 278.855C204.966 279.616 205.868 280.904 207.394 281.729C208.92 282.555 210.492 282.607 210.904 281.845Z" fill="#8ED16F"/>
<path opacity="0.1" d="M210.904 281.845C211.317 281.083 210.414 279.796 208.888 278.97C207.362 278.144 205.79 278.093 205.378 278.855C204.966 279.616 205.868 280.904 207.394 281.729C208.92 282.555 210.492 282.607 210.904 281.845Z" fill="black"/>
<path d="M193.9 275.937L192.504 283.464L207.174 286.185L208.57 278.659L193.9 275.937Z" fill="#8ED16F"/>
<path opacity="0.05" d="M193.9 275.937L192.504 283.464L207.174 286.185L208.57 278.659L193.9 275.937Z" fill="black"/>
<path d="M203.607 281.73C203.765 280.878 202.51 279.93 200.804 279.614C199.098 279.297 197.587 279.731 197.429 280.583C197.271 281.435 198.526 282.382 200.232 282.699C201.938 283.015 203.449 282.581 203.607 281.73Z" fill="#8ED16F"/>
<path opacity="0.1" d="M203.607 281.73C203.765 280.878 202.51 279.93 200.804 279.614C199.098 279.297 197.587 279.731 197.429 280.583C197.271 281.435 198.526 282.382 200.232 282.699C201.938 283.015 203.449 282.581 203.607 281.73Z" fill="black"/>
<path d="M195.274 280.455L193.878 287.982L208.547 290.704L209.944 283.177L195.274 280.455Z" fill="#8ED16F"/>
<path d="M204.985 286.248C205.143 285.396 203.888 284.449 202.182 284.132C200.476 283.816 198.965 284.25 198.807 285.102C198.649 285.954 199.904 286.901 201.61 287.217C203.316 287.534 204.827 287.1 204.985 286.248Z" fill="#8ED16F"/>
<path opacity="0.1" d="M204.985 286.248C205.143 285.396 203.888 284.449 202.182 284.132C200.476 283.816 198.965 284.25 198.807 285.102C198.649 285.954 199.904 286.901 201.61 287.217C203.316 287.534 204.827 287.1 204.985 286.248Z" fill="black"/>
<path d="M226.667 260.877L223.024 267.609L236.146 274.71L239.789 267.978L226.667 260.877Z" fill="#8ED16F"/>
<path d="M234.119 269.373C234.532 268.611 233.629 267.324 232.103 266.498C230.577 265.672 229.006 265.62 228.593 266.382C228.181 267.144 229.084 268.431 230.61 269.257C232.136 270.083 233.707 270.135 234.119 269.373Z" fill="#8ED16F"/>
<path opacity="0.1" d="M234.119 269.373C234.532 268.611 233.629 267.324 232.103 266.498C230.577 265.672 229.006 265.62 228.593 266.382C228.181 267.144 229.084 268.431 230.61 269.257C232.136 270.083 233.707 270.135 234.119 269.373Z" fill="black"/>
<path d="M217.121 263.469L215.725 270.996L230.394 273.717L231.791 266.191L217.121 263.469Z" fill="#8ED16F"/>
<path opacity="0.05" d="M217.121 263.469L215.725 270.996L230.394 273.717L231.791 266.191L217.121 263.469Z" fill="black"/>
<path d="M226.828 269.262C226.986 268.41 225.731 267.463 224.025 267.146C222.319 266.83 220.808 267.264 220.65 268.115C220.492 268.967 221.747 269.915 223.453 270.231C225.159 270.547 226.67 270.113 226.828 269.262Z" fill="#8ED16F"/>
<path opacity="0.1" d="M226.828 269.262C226.986 268.41 225.731 267.463 224.025 267.146C222.319 266.83 220.808 267.264 220.65 268.115C220.492 268.967 221.747 269.915 223.453 270.231C225.159 270.547 226.67 270.113 226.828 269.262Z" fill="black"/>
<path d="M218.495 267.987L217.098 275.513L231.768 278.235L233.164 270.708L218.495 267.987Z" fill="#8ED16F"/>
<path d="M228.205 273.78C228.363 272.928 227.109 271.981 225.403 271.665C223.697 271.348 222.186 271.782 222.027 272.634C221.869 273.486 223.124 274.433 224.83 274.749C226.536 275.066 228.047 274.632 228.205 273.78Z" fill="#8ED16F"/>
<path opacity="0.1" d="M228.205 273.78C228.363 272.928 227.109 271.981 225.403 271.665C223.697 271.348 222.186 271.782 222.027 272.634C221.869 273.486 223.124 274.433 224.83 274.749C226.536 275.066 228.047 274.632 228.205 273.78Z" fill="black"/>
</g>
<defs>
<linearGradient id="paint0_linear" x1="189.618" y1="254.854" x2="189.618" y2="109.018" gradientUnits="userSpaceOnUse">
<stop stop-color="#808080" stop-opacity="0.25"/>
<stop offset="0.54" stop-color="#808080" stop-opacity="0.12"/>
<stop offset="1" stop-color="#808080" stop-opacity="0.1"/>
</linearGradient>
<linearGradient id="paint1_linear" x1="-263860" y1="171910" x2="-263860" y2="46676.1" gradientUnits="userSpaceOnUse">
<stop stop-color="#808080" stop-opacity="0.25"/>
<stop offset="0.54" stop-color="#808080" stop-opacity="0.12"/>
<stop offset="1" stop-color="#808080" stop-opacity="0.1"/>
</linearGradient>
<clipPath id="clip0">
<rect width="400" height="293.437" fill="white"/>
</clipPath>
</defs>
</svg>
